<svg width="14" height="20" viewBox="0 0 14 20" fill="none" xmlns="http://www.w3.org/2000/svg">
<path d="M6.71126 11.8257L6.7778 13.2806C6.7778 14.2697 6.52052 15.046 6.01485 15.6093H13.8927V19.1091H0.0399216V15.6093H1.37508C1.86744 15.4807 2.12471 15.0327 2.15133 14.2697L2.16464 13.5822L2.0981 11.8257H0V8.45894H1.99608L1.91624 5.64669C1.91624 3.87683 2.44409 2.49288 3.50423 1.49484C4.55993 0.496802 5.99267 0 7.79801 0C9.73199 0 11.2401 0.496802 12.3269 1.49041C13.4092 2.48401 13.9548 3.83247 13.9548 5.53136H9.67876C9.67876 4.17402 9.09325 3.49536 7.91778 3.49536C7.47864 3.49536 7.12378 3.66835 6.85764 4.01877C6.5915 4.36919 6.45399 4.91035 6.45399 5.64669L6.56932 8.45894H10.5482V11.8257H6.71126Z" fill="#000080"/>
</svg>
