<svg width="12" height="22" viewBox="0 0 12 22" fill="none" xmlns="http://www.w3.org/2000/svg">
<path d="M8.55111 9.75614C7.70832 9.29039 6.81231 8.93553 5.92516 8.56737C5.41061 8.35445 4.91825 8.10605 4.48355 7.76006C3.62745 7.07696 3.79157 5.96803 4.79405 5.52889C5.07794 5.40469 5.37513 5.36477 5.67676 5.34703C6.83892 5.28493 7.94342 5.49784 8.99468 6.00351C9.5181 6.25635 9.69109 6.17651 9.86852 5.63091C10.0548 5.05427 10.2101 4.46875 10.3831 3.88767C10.4984 3.49733 10.3565 3.24005 9.98829 3.07593C9.31406 2.77874 8.62208 2.56582 7.89462 2.45049C6.94538 2.30412 6.94538 2.29968 6.94094 1.346C6.93651 0.00197146 6.93651 0.00197144 5.58804 0.00197144C5.39287 0.00197144 5.1977 -0.00246429 5.00253 0.00197144C4.37265 0.0197144 4.2662 0.130608 4.24845 0.764917C4.23958 1.0488 4.24845 1.33269 4.24402 1.62101C4.23958 2.4638 4.23515 2.4505 3.42784 2.74325C1.47612 3.45297 0.269604 4.78369 0.140968 6.91284C0.0256392 8.79803 1.01037 10.0711 2.55844 10.9981C3.51212 11.5704 4.56783 11.9075 5.57917 12.3555C5.97395 12.5285 6.35099 12.7281 6.67923 13.0031C7.65066 13.806 7.47323 15.1411 6.31994 15.6468C5.70337 15.9174 5.05132 15.9839 4.38153 15.8996C3.348 15.771 2.35883 15.5004 1.42733 15.0169C0.881735 14.733 0.722049 14.8084 0.535748 15.3984C0.376062 15.9085 0.234119 16.423 0.0921752 16.9376C-0.0985612 17.6296 -0.0275899 17.7937 0.633334 18.1175C1.47612 18.5256 2.37658 18.7341 3.29477 18.8804C4.01336 18.9958 4.03554 19.0268 4.04441 19.772C4.04885 20.1091 4.04885 20.4507 4.05328 20.7878C4.05772 21.2136 4.26176 21.462 4.7009 21.4709C5.1977 21.4798 5.69894 21.4798 6.19574 21.4665C6.60383 21.4576 6.81231 21.2358 6.81231 20.8233C6.81231 20.362 6.83448 19.8962 6.81674 19.4349C6.79456 18.9647 6.99861 18.7252 7.45105 18.601C8.49345 18.3171 9.38059 17.7582 10.0637 16.9243C11.9622 14.6177 11.2392 11.2421 8.55111 9.75614Z" fill="#000080"/>
</svg>
